<mxfile host="app.diagrams.net" modified="2024-06-21T17:05:45.054Z" agent="Mozilla/5.0 (Macintosh; Intel Mac OS X 10_15_7) AppleWebKit/537.36 (KHTML, like Gecko) Chrome/124.0.0.0 Safari/537.36" version="24.6.1" etag="hSdeZKK1jZLl5OVh3W8v" type="github">
  <diagram name="Page-1" id="FsC-G6fzMM9OMRp0BDCu">
    <mxGraphModel>
      <root>
        <mxCell id="0" />
        <mxCell id="1" parent="0" />
      </root>
    </mxGraphModel>
  </diagram>
</mxfile>
